<?xml version="1.0" encoding="UTF-8"?>
<svg version="1.1" viewBox="0 0 252.91 84.29" xmlns="http://www.w3.org/2000/svg"><defs><style>.cls-1 {
        fill: #afc944;
      }</style></defs><path class="cls-1" d="m26.36 0.01h-8.81l7.99 13.45h-25.54v7.57h30.04l10.3 17.33h-40.34v7.57h20.21l-20.21 35.49v2.87h7.08l21.85-38.36h29.54l-7.48 13.14h-18.86v0.05l-0.09-0.05-14.36 25.22h8.71l10.05-17.65h10.23l-10.05 17.65h8.71l21.85-38.36h17.31c1.92 21.47 20 38.36 41.96 38.36s38.43-15.42 41.62-35.52c0.77-0.27 1.55-0.49 1.99-0.69 1.01-0.46 16.36 0.46 18.64 0.71s8.42-2.72 9.49-3.33c1.06-0.61 5.07 0.77 5.6 1.3s2.99 0.51 4.07 0.79c2.42 0.63 9.18 6.08 9.96 8.12 0.13 0.33 0.07 2.97 0.76 4.15 0.69 1.19 0.34 10.85-0.2 11.8s-2.18 7.19-2.63 9.83c-0.11 0.62-0.89 1.64-2.01 2.83h5c1.48-4.15 3.81-6.99 4.5-8.41 0.7-1.43 2.08-2.53 4.05-3.04 1.67-0.43 5.59 7.79 7.86 11.44h8.78c-3.65-3.49-8.91-10.21-9.45-11.14-0.72-1.24-6.99-12.11-6.99-14.18s6.63-0.62 8.2-0.35c1.57 0.26 11.6-1.66 12.21-0.61 0.32 0.56 2.7 0.77 5.01 0.84v-6.53c-1.23-0.23-2.36-0.53-2.48-1.04-0.13-0.58 1.15-1.73 2.48-2.71v-4.86c-1.01 0.8-1.9 1.58-2.07 1.76-0.39 0.39-2.58 3.17-4.36 3.63-1.77 0.46-4.61 3.19-5.14 3.72s-10.41 0.16-11.22-0.13c-2.13-0.76-5.17-3.23-6.24-3.23s-4.35-4.47-4.35-5.88 6.77-3.87 8.58-6.25c1.44-1.9 7.87-5.34 8.58-6.05 2.15-2.15 10.51-2.51 12.74-2.51 0.82 0 2.11 0.14 3.47 0.32v-4.13c-1.53-0.3-2.9-0.52-3.34-0.62-1.11-0.25-7.04 0.56-7.6 0s0.2-5.67 0.2-7.85-2.16-6.59-1.92-7.24c0.61-1.66 2.68-1.72 4.76-4.41 0.66-0.86 1.54-2.69 2.42-4.82h-2.24c-1.97 2.93-7.17 4.85-7.93 4.57-0.27-0.1-1.8-2.04-3.81-4.57h-4.5c2.5 3.54 5.08 9.85 5.98 11.41 1.11 1.93-1.12 10.42-2.13 12.16-1 1.74-11.29 9.83-14.08 11.09-2.25 1.02-11.85 1.11-13.12 1.11s-4.42-1.21-5.06-2.33c-0.65-1.12 3.07-11.14 4.3-13.27s6.84-0.91 8.05-2.13c1.22-1.22 3.54-2.92 3.9-3.55s1.72-0.71 1.72-1.06-2.53-0.3-3.24-0.3-1.99 1.43-2.68 2.63-6.94 1.4-7.19 0.96 0-1.49 0.81-2.89c0.8-1.39 2.28-4.71 2.28-6.89s-1.32-1.32-1.32 0-3.12 6.26-3.55 6.99c-0.42 0.73-2.53 3.44-2.28 5.25s-4.46 7.72-4.91 10c-0.46 2.28-3.14 3.04-4 3.04s-4.41 5.04-5.32 5.32-9.85-0.28-10.28-0.71-2.13 0.35-5.32-1.57c-1.52-0.92-3.14-2.62-4.41-4.15-4.86-17.9-21.25-31.11-40.67-31.11-21.96 0-40.04 16.89-41.96 38.36h-35.35l-22.79-38.36zm100.11 7.57c19.06 0 34.57 15.51 34.57 34.57s-15.51 34.57-34.57 34.57-34.57-15.51-34.57-34.57 15.51-34.57 34.57-34.57z"/><g fill="#afc944" stroke-width="1.0674" aria-label="&gt;_"><path d="m105.06 50.749 17.25-10.247v-2.9034l-17.25-10.589v3.8855l13.663 8.1126-13.663 8.1553z"/><path d="m125.64 57.281h22.203v-2.9461h-22.203z"/></g></svg>
